<svg width="100" height="100" viewBox="0 0 100 100" fill="none" xmlns="http://www.w3.org/2000/svg">
<circle cx="50" cy="50" r="50" fill="white"/>
<path d="M39.0639 31.8066C37.3577 32.0691 35.7827 32.7254 34.2077 33.5129C27.1202 31.8066 18.5889 34.0379 17.6702 36.1379C16.8827 37.8441 20.5577 41.3879 23.0514 43.4879C21.8702 45.7191 21.0827 48.0816 20.6889 50.7066C18.1952 50.9691 14.7827 51.7566 14.2577 53.8566C13.3389 57.4004 14.2577 65.6691 18.8514 66.5879C20.8202 66.9816 23.0514 66.9816 24.8889 66.9816C26.5952 69.0816 28.6952 70.6566 31.0577 72.2316L28.9577 81.2879H42.4764L44.3139 76.4316C45.3639 76.5629 46.4139 76.6941 47.4639 76.6941C49.1702 76.6941 51.0077 76.3004 52.7139 76.0379L51.4014 81.2879H64.2639C64.2639 81.2879 74.3702 68.0316 75.8139 60.8129C76.7327 58.5816 77.5202 56.2191 77.3889 53.7254C77.1264 48.6066 70.4327 26.2941 39.0639 31.8066Z" fill="white"/>
<path d="M56.068 14.0063C49.243 14.0063 43.7305 19.5188 43.7305 26.3438C43.7305 30.8063 46.093 34.6126 49.5055 36.8438C52.2617 36.8438 55.6742 37.1063 58.693 38.4188C64.3367 37.2376 68.5367 32.2501 68.5367 26.3438C68.4055 19.5188 62.893 14.0063 56.068 14.0063Z" fill="#FFC112"/>
<path d="M74.5742 42.4876C73.1305 40.5188 71.4242 38.6813 69.3242 36.9751" stroke="black" stroke-width="2.625" stroke-miterlimit="10" stroke-linecap="round" stroke-linejoin="round"/>
<path d="M45.0434 32.25C44.1246 30.5438 43.5996 28.575 43.5996 26.6063C43.5996 19.7813 49.1121 14.2688 55.9371 14.2688C62.7621 14.2688 68.2746 19.7813 68.2746 26.6063C68.2746 30.2813 66.6996 33.4313 64.2059 35.7938" stroke="black" stroke-width="2.625" stroke-miterlimit="10" stroke-linecap="round" stroke-linejoin="round"/>
<path d="M60.5305 22.6687C60.5305 22.6687 60.1367 20.7 56.068 20.7C52.918 20.7 51.6055 22.4062 51.6055 23.9812C51.6055 25.5562 53.443 26.6062 56.068 26.6062C59.6117 26.6062 60.5305 27.7875 60.5305 29.2312C60.5305 31.2 58.4305 32.5125 56.068 32.5125C53.7055 32.5125 51.868 31.2 51.6055 30.5437" stroke="#2C3E50" stroke-width="2.625" stroke-miterlimit="10" stroke-linecap="round" stroke-linejoin="round"/>
<path d="M55.9375 19.125V33.5625" stroke="#2C3E50" stroke-width="2.625" stroke-miterlimit="10" stroke-linecap="round" stroke-linejoin="round"/>
<path d="M31 50.3625C31.7249 50.3625 32.3125 49.7749 32.3125 49.05C32.3125 48.3252 31.7249 47.7375 31 47.7375C30.2751 47.7375 29.6875 48.3252 29.6875 49.05C29.6875 49.7749 30.2751 50.3625 31 50.3625Z" stroke="black" stroke-width="2.625" stroke-miterlimit="10" stroke-linecap="round" stroke-linejoin="round"/>
<path d="M39.6635 31.3313C37.9573 31.725 36.3823 32.2501 34.8073 33.0376C27.7198 31.3313 19.1885 33.5626 18.2698 35.6626C17.4823 37.3688 21.1573 40.9126 23.651 43.0126C22.4698 45.2438 21.6823 47.6063 21.2885 50.2313C18.7948 50.4938 15.3823 51.2813 14.8573 53.3813C13.9385 56.925 14.8573 65.1938 19.451 66.1125C21.4198 66.5063 23.651 66.5063 25.4885 66.5063C27.1948 68.6063 29.2948 70.1813 31.6573 71.7563L29.5573 80.8125H43.076L44.9135 75.9563C45.9635 76.0875 47.0135 76.2188 48.0635 76.2188C49.7698 76.2188 51.6073 75.825 53.3135 75.5625L52.001 80.8125H64.8635C64.8635 80.8125 74.9698 67.5563 76.4135 60.3376C77.3323 58.1063 77.9885 55.7438 77.9885 53.25" stroke="black" stroke-width="2.625" stroke-miterlimit="10" stroke-linecap="round" stroke-linejoin="round"/>
<path d="M75.0996 48.2626C75.0996 48.2626 84.1559 48.7876 83.6309 42.3563C83.2371 37.6313 80.8746 36.7126 79.2996 38.6813C77.9871 40.3876 79.2996 45.1126 84.8121 44.8501C90.3246 44.5876 88.7496 37.6313 88.7496 37.6313" stroke="black" stroke-width="2.625" stroke-miterlimit="10" stroke-linecap="round" stroke-linejoin="round"/>
<path d="M44.7812 37.2373C44.7812 37.2373 55.2812 35.2686 61.1875 39.9936" stroke="black" stroke-width="2.625" stroke-miterlimit="10" stroke-linecap="round" stroke-linejoin="round"/>
</svg>
